<mxfile host="app.diagrams.net" modified="2020-11-07T13:23:50.016Z" agent="5.0 (Windows NT 10.0; Win64; x64) AppleWebKit/537.36 (KHTML, like Gecko) Chrome/86.0.4240.183 Safari/537.36" etag="drM3kkDivXVTbK34M21E" version="13.9.2" type="github" pages="3">
  <diagram id="hnk0GGWnFjxsSdoRdIvr" name="Page-1">
    <mxGraphModel dx="1865" dy="1717" grid="1" gridSize="10" guides="1" tooltips="1" connect="1" arrows="1" fold="1" page="1" pageScale="1" pageWidth="827" pageHeight="1169" math="0" shadow="0">
      <root>
        <mxCell id="0" />
        <mxCell id="1" parent="0" />
        <mxCell id="8ZY2IFjKFhMp_e0ys6mb-12" style="edgeStyle=orthogonalEdgeStyle;rounded=0;orthogonalLoop=1;jettySize=auto;html=1;startArrow=none;startFill=0;endArrow=ERmany;endFill=0;" parent="1" source="8ZY2IFjKFhMp_e0ys6mb-22" edge="1">
          <mxGeometry relative="1" as="geometry">
            <mxPoint x="620" y="-352" as="targetPoint" />
          </mxGeometry>
        </mxCell>
        <mxCell id="8ZY2IFjKFhMp_e0ys6mb-2" value="mail station" style="rounded=0;whiteSpace=wrap;html=1;" parent="1" vertex="1">
          <mxGeometry x="350" y="-400" width="120" height="60" as="geometry" />
        </mxCell>
        <mxCell id="8ZY2IFjKFhMp_e0ys6mb-15" style="edgeStyle=orthogonalEdgeStyle;rounded=0;orthogonalLoop=1;jettySize=auto;html=1;startArrow=ERmany;startFill=0;endArrow=ERmany;endFill=0;entryX=0.583;entryY=1;entryDx=0;entryDy=0;entryPerimeter=0;" parent="1" source="8ZY2IFjKFhMp_e0ys6mb-3" target="8ZY2IFjKFhMp_e0ys6mb-7" edge="1">
          <mxGeometry relative="1" as="geometry">
            <mxPoint x="680" y="-240" as="targetPoint" />
            <Array as="points">
              <mxPoint x="690" y="-240" />
            </Array>
          </mxGeometry>
        </mxCell>
        <mxCell id="8ZY2IFjKFhMp_e0ys6mb-16" style="edgeStyle=orthogonalEdgeStyle;rounded=0;orthogonalLoop=1;jettySize=auto;html=1;entryX=0.32;entryY=1.033;entryDx=0;entryDy=0;entryPerimeter=0;startArrow=ERmany;startFill=0;endArrow=ERmany;endFill=0;" parent="1" source="8ZY2IFjKFhMp_e0ys6mb-3" target="8ZY2IFjKFhMp_e0ys6mb-5" edge="1">
          <mxGeometry relative="1" as="geometry" />
        </mxCell>
        <mxCell id="8ZY2IFjKFhMp_e0ys6mb-3" value="address" style="rounded=0;whiteSpace=wrap;html=1;" parent="1" vertex="1">
          <mxGeometry x="330" y="-210" width="120" height="60" as="geometry" />
        </mxCell>
        <mxCell id="8ZY2IFjKFhMp_e0ys6mb-17" style="edgeStyle=orthogonalEdgeStyle;rounded=0;orthogonalLoop=1;jettySize=auto;html=1;entryX=1;entryY=0.5;entryDx=0;entryDy=0;startArrow=ERmany;startFill=0;endArrow=ERmany;endFill=0;" parent="1" source="8ZY2IFjKFhMp_e0ys6mb-4" target="8ZY2IFjKFhMp_e0ys6mb-6" edge="1">
          <mxGeometry relative="1" as="geometry" />
        </mxCell>
        <mxCell id="8ZY2IFjKFhMp_e0ys6mb-18" style="edgeStyle=orthogonalEdgeStyle;rounded=0;orthogonalLoop=1;jettySize=auto;html=1;startArrow=ERmany;startFill=0;endArrow=ERmany;endFill=0;entryX=0.667;entryY=0;entryDx=0;entryDy=0;entryPerimeter=0;" parent="1" source="8ZY2IFjKFhMp_e0ys6mb-4" target="8ZY2IFjKFhMp_e0ys6mb-2" edge="1">
          <mxGeometry relative="1" as="geometry">
            <mxPoint x="590" y="-410" as="targetPoint" />
            <Array as="points">
              <mxPoint x="660" y="-450" />
              <mxPoint x="440" y="-450" />
              <mxPoint x="440" y="-400" />
            </Array>
          </mxGeometry>
        </mxCell>
        <mxCell id="8ZY2IFjKFhMp_e0ys6mb-4" value="packaging" style="rounded=0;whiteSpace=wrap;html=1;" parent="1" vertex="1">
          <mxGeometry x="610" y="-550" width="120" height="60" as="geometry" />
        </mxCell>
        <mxCell id="8ZY2IFjKFhMp_e0ys6mb-9" style="edgeStyle=orthogonalEdgeStyle;rounded=0;orthogonalLoop=1;jettySize=auto;html=1;exitX=1;exitY=0.5;exitDx=0;exitDy=0;entryX=0;entryY=0.5;entryDx=0;entryDy=0;startArrow=none;startFill=0;endArrow=ERmany;endFill=0;" parent="1" source="8ZY2IFjKFhMp_e0ys6mb-19" target="8ZY2IFjKFhMp_e0ys6mb-2" edge="1">
          <mxGeometry relative="1" as="geometry" />
        </mxCell>
        <mxCell id="8ZY2IFjKFhMp_e0ys6mb-5" value="customer" style="rounded=0;whiteSpace=wrap;html=1;" parent="1" vertex="1">
          <mxGeometry x="10" y="-400" width="120" height="60" as="geometry" />
        </mxCell>
        <mxCell id="8ZY2IFjKFhMp_e0ys6mb-11" style="edgeStyle=orthogonalEdgeStyle;rounded=0;orthogonalLoop=1;jettySize=auto;html=1;entryX=0.413;entryY=-0.033;entryDx=0;entryDy=0;entryPerimeter=0;startArrow=ERmany;startFill=0;endArrow=ERmany;endFill=0;" parent="1" source="8ZY2IFjKFhMp_e0ys6mb-6" target="8ZY2IFjKFhMp_e0ys6mb-5" edge="1">
          <mxGeometry relative="1" as="geometry">
            <Array as="points">
              <mxPoint x="60" y="-520" />
            </Array>
          </mxGeometry>
        </mxCell>
        <mxCell id="8ZY2IFjKFhMp_e0ys6mb-6" value="delivery route" style="rounded=0;whiteSpace=wrap;html=1;" parent="1" vertex="1">
          <mxGeometry x="350" y="-550" width="120" height="60" as="geometry" />
        </mxCell>
        <mxCell id="8ZY2IFjKFhMp_e0ys6mb-7" value="employees" style="rounded=0;whiteSpace=wrap;html=1;" parent="1" vertex="1">
          <mxGeometry x="620" y="-390" width="120" height="60" as="geometry" />
        </mxCell>
        <mxCell id="bsbDy2MxF6c4dUeJ8BXN-24" value="" style="edgeStyle=orthogonalEdgeStyle;rounded=0;orthogonalLoop=1;jettySize=auto;html=1;startArrow=ERmany;startFill=0;endArrow=ERmany;endFill=0;" parent="1" source="8ZY2IFjKFhMp_e0ys6mb-19" target="8ZY2IFjKFhMp_e0ys6mb-5" edge="1">
          <mxGeometry relative="1" as="geometry" />
        </mxCell>
        <mxCell id="bsbDy2MxF6c4dUeJ8BXN-25" value="" style="edgeStyle=orthogonalEdgeStyle;rounded=0;orthogonalLoop=1;jettySize=auto;html=1;startFill=0;endArrow=none;endFill=0;" parent="1" target="8ZY2IFjKFhMp_e0ys6mb-5" edge="1">
          <mxGeometry relative="1" as="geometry">
            <mxPoint x="220" y="-370" as="sourcePoint" />
          </mxGeometry>
        </mxCell>
        <mxCell id="8ZY2IFjKFhMp_e0ys6mb-19" value="send" style="rhombus;whiteSpace=wrap;html=1;" parent="1" vertex="1">
          <mxGeometry x="220" y="-410" width="80" height="80" as="geometry" />
        </mxCell>
        <mxCell id="8ZY2IFjKFhMp_e0ys6mb-20" style="edgeStyle=orthogonalEdgeStyle;rounded=0;orthogonalLoop=1;jettySize=auto;html=1;exitX=1;exitY=0.5;exitDx=0;exitDy=0;entryX=0;entryY=0.5;entryDx=0;entryDy=0;startArrow=ERmany;startFill=0;endArrow=none;endFill=0;" parent="1" source="8ZY2IFjKFhMp_e0ys6mb-5" target="8ZY2IFjKFhMp_e0ys6mb-19" edge="1">
          <mxGeometry relative="1" as="geometry">
            <mxPoint x="130" y="-370" as="sourcePoint" />
            <mxPoint x="380" y="-370" as="targetPoint" />
          </mxGeometry>
        </mxCell>
        <mxCell id="8ZY2IFjKFhMp_e0ys6mb-21" value="deliver" style="rhombus;whiteSpace=wrap;html=1;" parent="1" vertex="1">
          <mxGeometry x="180" y="-560" width="80" height="80" as="geometry" />
        </mxCell>
        <mxCell id="8ZY2IFjKFhMp_e0ys6mb-22" value="work" style="rhombus;whiteSpace=wrap;html=1;" parent="1" vertex="1">
          <mxGeometry x="500" y="-430" width="80" height="80" as="geometry" />
        </mxCell>
        <mxCell id="8ZY2IFjKFhMp_e0ys6mb-23" style="edgeStyle=orthogonalEdgeStyle;rounded=0;orthogonalLoop=1;jettySize=auto;html=1;entryX=-0.003;entryY=0.627;entryDx=0;entryDy=0;entryPerimeter=0;startArrow=ERmany;startFill=0;endArrow=none;endFill=0;" parent="1" source="8ZY2IFjKFhMp_e0ys6mb-2" target="8ZY2IFjKFhMp_e0ys6mb-22" edge="1">
          <mxGeometry relative="1" as="geometry">
            <mxPoint x="470" y="-370" as="sourcePoint" />
            <mxPoint x="619.6400000000001" y="-352.3800000000001" as="targetPoint" />
          </mxGeometry>
        </mxCell>
        <mxCell id="8ZY2IFjKFhMp_e0ys6mb-24" value="route name" style="ellipse;whiteSpace=wrap;html=1;" parent="1" vertex="1">
          <mxGeometry x="250" y="-670" width="120" height="80" as="geometry" />
        </mxCell>
        <mxCell id="8ZY2IFjKFhMp_e0ys6mb-25" value="customer name" style="ellipse;whiteSpace=wrap;html=1;" parent="1" vertex="1">
          <mxGeometry x="414" y="-630" width="120" height="80" as="geometry" />
        </mxCell>
        <mxCell id="8ZY2IFjKFhMp_e0ys6mb-26" value="capacity" style="ellipse;whiteSpace=wrap;html=1;" parent="1" vertex="1">
          <mxGeometry x="360" y="-700" width="120" height="80" as="geometry" />
        </mxCell>
        <mxCell id="bsbDy2MxF6c4dUeJ8BXN-1" value="customer id" style="ellipse;whiteSpace=wrap;html=1;" parent="1" vertex="1">
          <mxGeometry x="570" y="-640" width="120" height="80" as="geometry" />
        </mxCell>
        <mxCell id="bsbDy2MxF6c4dUeJ8BXN-2" value="delivering schedule" style="ellipse;whiteSpace=wrap;html=1;" parent="1" vertex="1">
          <mxGeometry x="670" y="-690" width="120" height="80" as="geometry" />
        </mxCell>
        <mxCell id="bsbDy2MxF6c4dUeJ8BXN-3" value="package number" style="ellipse;whiteSpace=wrap;html=1;" parent="1" vertex="1">
          <mxGeometry x="560" y="-720" width="120" height="80" as="geometry" />
        </mxCell>
        <mxCell id="bsbDy2MxF6c4dUeJ8BXN-4" value="street" style="ellipse;whiteSpace=wrap;html=1;" parent="1" vertex="1">
          <mxGeometry x="340" y="-150" width="120" height="80" as="geometry" />
        </mxCell>
        <mxCell id="bsbDy2MxF6c4dUeJ8BXN-7" value="city" style="ellipse;whiteSpace=wrap;html=1;" parent="1" vertex="1">
          <mxGeometry x="370" y="-70" width="120" height="80" as="geometry" />
        </mxCell>
        <mxCell id="bsbDy2MxF6c4dUeJ8BXN-8" value="tel. nr." style="ellipse;whiteSpace=wrap;html=1;" parent="1" vertex="1">
          <mxGeometry x="470" y="-160" width="120" height="80" as="geometry" />
        </mxCell>
        <mxCell id="bsbDy2MxF6c4dUeJ8BXN-9" value="first name" style="ellipse;whiteSpace=wrap;html=1;" parent="1" vertex="1">
          <mxGeometry x="-100" y="-480" width="120" height="80" as="geometry" />
        </mxCell>
        <mxCell id="bsbDy2MxF6c4dUeJ8BXN-10" value="address" style="ellipse;whiteSpace=wrap;html=1;" parent="1" vertex="1">
          <mxGeometry x="-110" y="-410" width="120" height="80" as="geometry" />
        </mxCell>
        <mxCell id="bsbDy2MxF6c4dUeJ8BXN-11" value="order nr" style="ellipse;whiteSpace=wrap;html=1;" parent="1" vertex="1">
          <mxGeometry x="-80" y="-340" width="120" height="80" as="geometry" />
        </mxCell>
        <mxCell id="bsbDy2MxF6c4dUeJ8BXN-12" value="first name" style="ellipse;whiteSpace=wrap;html=1;" parent="1" vertex="1">
          <mxGeometry x="710" y="-480" width="120" height="80" as="geometry" />
        </mxCell>
        <mxCell id="bsbDy2MxF6c4dUeJ8BXN-13" value="last name" style="ellipse;whiteSpace=wrap;html=1;" parent="1" vertex="1">
          <mxGeometry x="740" y="-400" width="120" height="80" as="geometry" />
        </mxCell>
        <mxCell id="bsbDy2MxF6c4dUeJ8BXN-14" value="department" style="ellipse;whiteSpace=wrap;html=1;" parent="1" vertex="1">
          <mxGeometry x="720" y="-260" width="120" height="80" as="geometry" />
        </mxCell>
        <mxCell id="bsbDy2MxF6c4dUeJ8BXN-15" value="address" style="ellipse;whiteSpace=wrap;html=1;" parent="1" vertex="1">
          <mxGeometry x="690" y="-330" width="120" height="80" as="geometry" />
        </mxCell>
        <mxCell id="bsbDy2MxF6c4dUeJ8BXN-16" value="name" style="ellipse;whiteSpace=wrap;html=1;" parent="1" vertex="1">
          <mxGeometry x="260" y="-330" width="110" height="80" as="geometry" />
        </mxCell>
        <mxCell id="bsbDy2MxF6c4dUeJ8BXN-17" value="address" style="ellipse;whiteSpace=wrap;html=1;" parent="1" vertex="1">
          <mxGeometry x="160" y="-320" width="110" height="80" as="geometry" />
        </mxCell>
        <mxCell id="bsbDy2MxF6c4dUeJ8BXN-18" value="customer id" style="ellipse;whiteSpace=wrap;html=1;" parent="1" vertex="1">
          <mxGeometry x="370" y="-340" width="110" height="80" as="geometry" />
        </mxCell>
        <mxCell id="bsbDy2MxF6c4dUeJ8BXN-19" value="package id" style="ellipse;whiteSpace=wrap;html=1;" parent="1" vertex="1">
          <mxGeometry x="475" y="-340" width="110" height="80" as="geometry" />
        </mxCell>
        <mxCell id="bsbDy2MxF6c4dUeJ8BXN-20" value="package id" style="ellipse;whiteSpace=wrap;html=1;" parent="1" vertex="1">
          <mxGeometry x="240" y="-610" width="120" height="80" as="geometry" />
        </mxCell>
        <mxCell id="bsbDy2MxF6c4dUeJ8BXN-21" value="delivery time" style="ellipse;whiteSpace=wrap;html=1;" parent="1" vertex="1">
          <mxGeometry x="240" y="-740" width="120" height="80" as="geometry" />
        </mxCell>
        <mxCell id="bsbDy2MxF6c4dUeJ8BXN-22" value="last name" style="ellipse;whiteSpace=wrap;html=1;" parent="1" vertex="1">
          <mxGeometry x="-90" y="-560" width="120" height="80" as="geometry" />
        </mxCell>
        <mxCell id="bsbDy2MxF6c4dUeJ8BXN-23" value="transport id" style="ellipse;whiteSpace=wrap;html=1;" parent="1" vertex="1">
          <mxGeometry x="720" y="-620" width="120" height="80" as="geometry" />
        </mxCell>
        <mxCell id="by-STR8Zz70z8fE5X3gj-1" value="&lt;b&gt;ER-Diagram&lt;/b&gt;" style="text;html=1;align=center;verticalAlign=middle;resizable=0;points=[];autosize=1;" parent="1" vertex="1">
          <mxGeometry x="330" y="-900" width="80" height="20" as="geometry" />
        </mxCell>
      </root>
    </mxGraphModel>
  </diagram>
  <diagram id="Oa4SpMIAOaJcCR6CmX-8" name="Page-2">
    <mxGraphModel dx="1038" dy="548" grid="1" gridSize="10" guides="1" tooltips="1" connect="1" arrows="1" fold="1" page="1" pageScale="1" pageWidth="827" pageHeight="1169" math="0" shadow="0">
      <root>
        <mxCell id="JO5ajSMM-dHssCaJp00G-0" />
        <mxCell id="JO5ajSMM-dHssCaJp00G-1" parent="JO5ajSMM-dHssCaJp00G-0" />
        <mxCell id="dTjT5EwLh-puFRtbz3j6-0" value="Delivering Route" style="swimlane;fontStyle=1;align=center;verticalAlign=top;childLayout=stackLayout;horizontal=1;startSize=26;horizontalStack=0;resizeParent=1;resizeParentMax=0;resizeLast=0;collapsible=1;marginBottom=0;" parent="JO5ajSMM-dHssCaJp00G-1" vertex="1">
          <mxGeometry x="150" y="90" width="160" height="168" as="geometry" />
        </mxCell>
        <mxCell id="dTjT5EwLh-puFRtbz3j6-1" value="+ delivering route_id" style="text;strokeColor=none;fillColor=none;align=left;verticalAlign=top;spacingLeft=4;spacingRight=4;overflow=hidden;rotatable=0;points=[[0,0.5],[1,0.5]];portConstraint=eastwest;" parent="dTjT5EwLh-puFRtbz3j6-0" vertex="1">
          <mxGeometry y="26" width="160" height="26" as="geometry" />
        </mxCell>
        <mxCell id="dTjT5EwLh-puFRtbz3j6-2" value="" style="line;strokeWidth=1;fillColor=none;align=left;verticalAlign=middle;spacingTop=-1;spacingLeft=3;spacingRight=3;rotatable=0;labelPosition=right;points=[];portConstraint=eastwest;" parent="dTjT5EwLh-puFRtbz3j6-0" vertex="1">
          <mxGeometry y="52" width="160" height="8" as="geometry" />
        </mxCell>
        <mxCell id="dTjT5EwLh-puFRtbz3j6-3" value="+ fk_package_id" style="text;strokeColor=none;fillColor=none;align=left;verticalAlign=top;spacingLeft=4;spacingRight=4;overflow=hidden;rotatable=0;points=[[0,0.5],[1,0.5]];portConstraint=eastwest;" parent="dTjT5EwLh-puFRtbz3j6-0" vertex="1">
          <mxGeometry y="60" width="160" height="30" as="geometry" />
        </mxCell>
        <mxCell id="V1bVW4BX6zocVQ5-wDzy-0" value="+ route name" style="text;strokeColor=none;fillColor=none;align=left;verticalAlign=top;spacingLeft=4;spacingRight=4;overflow=hidden;rotatable=0;points=[[0,0.5],[1,0.5]];portConstraint=eastwest;" vertex="1" parent="dTjT5EwLh-puFRtbz3j6-0">
          <mxGeometry y="90" width="160" height="26" as="geometry" />
        </mxCell>
        <mxCell id="V1bVW4BX6zocVQ5-wDzy-1" value="+ capacity" style="text;strokeColor=none;fillColor=none;align=left;verticalAlign=top;spacingLeft=4;spacingRight=4;overflow=hidden;rotatable=0;points=[[0,0.5],[1,0.5]];portConstraint=eastwest;" vertex="1" parent="dTjT5EwLh-puFRtbz3j6-0">
          <mxGeometry y="116" width="160" height="26" as="geometry" />
        </mxCell>
        <mxCell id="bMnSO-3EK2dQn2kBs7W8-0" value="+fk_customer_id" style="text;strokeColor=none;fillColor=none;align=left;verticalAlign=top;spacingLeft=4;spacingRight=4;overflow=hidden;rotatable=0;points=[[0,0.5],[1,0.5]];portConstraint=eastwest;" vertex="1" parent="dTjT5EwLh-puFRtbz3j6-0">
          <mxGeometry y="142" width="160" height="26" as="geometry" />
        </mxCell>
        <mxCell id="dTjT5EwLh-puFRtbz3j6-4" value="Emplyees" style="swimlane;fontStyle=1;align=center;verticalAlign=top;childLayout=stackLayout;horizontal=1;startSize=26;horizontalStack=0;resizeParent=1;resizeParentMax=0;resizeLast=0;collapsible=1;marginBottom=0;" parent="JO5ajSMM-dHssCaJp00G-1" vertex="1">
          <mxGeometry x="620" y="380" width="160" height="164" as="geometry" />
        </mxCell>
        <mxCell id="dTjT5EwLh-puFRtbz3j6-5" value="+ employee_id" style="text;strokeColor=none;fillColor=none;align=left;verticalAlign=top;spacingLeft=4;spacingRight=4;overflow=hidden;rotatable=0;points=[[0,0.5],[1,0.5]];portConstraint=eastwest;" parent="dTjT5EwLh-puFRtbz3j6-4" vertex="1">
          <mxGeometry y="26" width="160" height="26" as="geometry" />
        </mxCell>
        <mxCell id="dTjT5EwLh-puFRtbz3j6-6" value="" style="line;strokeWidth=1;fillColor=none;align=left;verticalAlign=middle;spacingTop=-1;spacingLeft=3;spacingRight=3;rotatable=0;labelPosition=right;points=[];portConstraint=eastwest;" parent="dTjT5EwLh-puFRtbz3j6-4" vertex="1">
          <mxGeometry y="52" width="160" height="8" as="geometry" />
        </mxCell>
        <mxCell id="dTjT5EwLh-puFRtbz3j6-7" value="+ first name" style="text;strokeColor=none;fillColor=none;align=left;verticalAlign=top;spacingLeft=4;spacingRight=4;overflow=hidden;rotatable=0;points=[[0,0.5],[1,0.5]];portConstraint=eastwest;" parent="dTjT5EwLh-puFRtbz3j6-4" vertex="1">
          <mxGeometry y="60" width="160" height="26" as="geometry" />
        </mxCell>
        <mxCell id="_HQiAtw4bZrdColBVZfd-0" value="+ last name" style="text;strokeColor=none;fillColor=none;align=left;verticalAlign=top;spacingLeft=4;spacingRight=4;overflow=hidden;rotatable=0;points=[[0,0.5],[1,0.5]];portConstraint=eastwest;" vertex="1" parent="dTjT5EwLh-puFRtbz3j6-4">
          <mxGeometry y="86" width="160" height="26" as="geometry" />
        </mxCell>
        <mxCell id="_HQiAtw4bZrdColBVZfd-1" value="+ address" style="text;strokeColor=none;fillColor=none;align=left;verticalAlign=top;spacingLeft=4;spacingRight=4;overflow=hidden;rotatable=0;points=[[0,0.5],[1,0.5]];portConstraint=eastwest;" vertex="1" parent="dTjT5EwLh-puFRtbz3j6-4">
          <mxGeometry y="112" width="160" height="26" as="geometry" />
        </mxCell>
        <mxCell id="_HQiAtw4bZrdColBVZfd-2" value="+ department" style="text;strokeColor=none;fillColor=none;align=left;verticalAlign=top;spacingLeft=4;spacingRight=4;overflow=hidden;rotatable=0;points=[[0,0.5],[1,0.5]];portConstraint=eastwest;" vertex="1" parent="dTjT5EwLh-puFRtbz3j6-4">
          <mxGeometry y="138" width="160" height="26" as="geometry" />
        </mxCell>
        <mxCell id="dTjT5EwLh-puFRtbz3j6-8" value="Mail Station" style="swimlane;fontStyle=1;align=center;verticalAlign=top;childLayout=stackLayout;horizontal=1;startSize=26;horizontalStack=0;resizeParent=1;resizeParentMax=0;resizeLast=0;collapsible=1;marginBottom=0;" parent="JO5ajSMM-dHssCaJp00G-1" vertex="1">
          <mxGeometry x="320" y="220" width="160" height="138" as="geometry" />
        </mxCell>
        <mxCell id="dTjT5EwLh-puFRtbz3j6-9" value="+ mail station_id" style="text;strokeColor=none;fillColor=none;align=left;verticalAlign=top;spacingLeft=4;spacingRight=4;overflow=hidden;rotatable=0;points=[[0,0.5],[1,0.5]];portConstraint=eastwest;" parent="dTjT5EwLh-puFRtbz3j6-8" vertex="1">
          <mxGeometry y="26" width="160" height="26" as="geometry" />
        </mxCell>
        <mxCell id="dTjT5EwLh-puFRtbz3j6-10" value="" style="line;strokeWidth=1;fillColor=none;align=left;verticalAlign=middle;spacingTop=-1;spacingLeft=3;spacingRight=3;rotatable=0;labelPosition=right;points=[];portConstraint=eastwest;" parent="dTjT5EwLh-puFRtbz3j6-8" vertex="1">
          <mxGeometry y="52" width="160" height="8" as="geometry" />
        </mxCell>
        <mxCell id="dTjT5EwLh-puFRtbz3j6-11" value="+ fk_address" style="text;strokeColor=none;fillColor=none;align=left;verticalAlign=top;spacingLeft=4;spacingRight=4;overflow=hidden;rotatable=0;points=[[0,0.5],[1,0.5]];portConstraint=eastwest;" parent="dTjT5EwLh-puFRtbz3j6-8" vertex="1">
          <mxGeometry y="60" width="160" height="26" as="geometry" />
        </mxCell>
        <mxCell id="cE_CaxFiZiadnvDJP7Hq-10" value="+ fk_customer_id" style="text;align=left;verticalAlign=top;spacingLeft=4;spacingRight=4;overflow=hidden;rotatable=0;points=[[0,0.5],[1,0.5]];portConstraint=eastwest;" vertex="1" parent="dTjT5EwLh-puFRtbz3j6-8">
          <mxGeometry y="86" width="160" height="26" as="geometry" />
        </mxCell>
        <mxCell id="o8d5DoNJli5vKTTFLMnQ-0" value="+ fk_package__id" style="text;align=left;verticalAlign=top;spacingLeft=4;spacingRight=4;overflow=hidden;rotatable=0;points=[[0,0.5],[1,0.5]];portConstraint=eastwest;" vertex="1" parent="dTjT5EwLh-puFRtbz3j6-8">
          <mxGeometry y="112" width="160" height="26" as="geometry" />
        </mxCell>
        <mxCell id="dTjT5EwLh-puFRtbz3j6-12" value="Customer" style="swimlane;fontStyle=1;align=center;verticalAlign=top;childLayout=stackLayout;horizontal=1;startSize=26;horizontalStack=0;resizeParent=1;resizeParentMax=0;resizeLast=0;collapsible=1;marginBottom=0;" parent="JO5ajSMM-dHssCaJp00G-1" vertex="1">
          <mxGeometry x="20" y="280" width="160" height="180" as="geometry" />
        </mxCell>
        <mxCell id="dTjT5EwLh-puFRtbz3j6-13" value="+customer_id" style="text;strokeColor=none;fillColor=none;align=left;verticalAlign=top;spacingLeft=4;spacingRight=4;overflow=hidden;rotatable=0;points=[[0,0.5],[1,0.5]];portConstraint=eastwest;" parent="dTjT5EwLh-puFRtbz3j6-12" vertex="1">
          <mxGeometry y="26" width="160" height="26" as="geometry" />
        </mxCell>
        <mxCell id="dTjT5EwLh-puFRtbz3j6-14" value="" style="line;strokeWidth=1;fillColor=none;align=left;verticalAlign=middle;spacingTop=-1;spacingLeft=3;spacingRight=3;rotatable=0;labelPosition=right;points=[];portConstraint=eastwest;" parent="dTjT5EwLh-puFRtbz3j6-12" vertex="1">
          <mxGeometry y="52" width="160" height="8" as="geometry" />
        </mxCell>
        <mxCell id="cE_CaxFiZiadnvDJP7Hq-11" value="+ first name" style="text;strokeColor=none;fillColor=none;align=left;verticalAlign=top;spacingLeft=4;spacingRight=4;overflow=hidden;rotatable=0;points=[[0,0.5],[1,0.5]];portConstraint=eastwest;" vertex="1" parent="dTjT5EwLh-puFRtbz3j6-12">
          <mxGeometry y="60" width="160" height="30" as="geometry" />
        </mxCell>
        <mxCell id="cE_CaxFiZiadnvDJP7Hq-12" value="+ last name" style="text;strokeColor=none;fillColor=none;align=left;verticalAlign=top;spacingLeft=4;spacingRight=4;overflow=hidden;rotatable=0;points=[[0,0.5],[1,0.5]];portConstraint=eastwest;" vertex="1" parent="dTjT5EwLh-puFRtbz3j6-12">
          <mxGeometry y="90" width="160" height="30" as="geometry" />
        </mxCell>
        <mxCell id="cE_CaxFiZiadnvDJP7Hq-13" value="+ fk_address" style="text;strokeColor=none;fillColor=none;align=left;verticalAlign=top;spacingLeft=4;spacingRight=4;overflow=hidden;rotatable=0;points=[[0,0.5],[1,0.5]];portConstraint=eastwest;" vertex="1" parent="dTjT5EwLh-puFRtbz3j6-12">
          <mxGeometry y="120" width="160" height="30" as="geometry" />
        </mxCell>
        <mxCell id="noj-ZBapnDG1__Cq-duX-0" value="+ order nr" style="text;strokeColor=none;fillColor=none;align=left;verticalAlign=top;spacingLeft=4;spacingRight=4;overflow=hidden;rotatable=0;points=[[0,0.5],[1,0.5]];portConstraint=eastwest;" vertex="1" parent="dTjT5EwLh-puFRtbz3j6-12">
          <mxGeometry y="150" width="160" height="30" as="geometry" />
        </mxCell>
        <mxCell id="dTjT5EwLh-puFRtbz3j6-16" value="Address" style="swimlane;fontStyle=1;align=center;verticalAlign=top;childLayout=stackLayout;horizontal=1;startSize=26;horizontalStack=0;resizeParent=1;resizeParentMax=0;resizeLast=0;collapsible=1;marginBottom=0;" parent="JO5ajSMM-dHssCaJp00G-1" vertex="1">
          <mxGeometry x="320" y="410" width="160" height="138" as="geometry" />
        </mxCell>
        <mxCell id="dTjT5EwLh-puFRtbz3j6-17" value="+ address_id" style="text;strokeColor=none;fillColor=none;align=left;verticalAlign=top;spacingLeft=4;spacingRight=4;overflow=hidden;rotatable=0;points=[[0,0.5],[1,0.5]];portConstraint=eastwest;" parent="dTjT5EwLh-puFRtbz3j6-16" vertex="1">
          <mxGeometry y="26" width="160" height="26" as="geometry" />
        </mxCell>
        <mxCell id="dTjT5EwLh-puFRtbz3j6-18" value="" style="line;strokeWidth=1;fillColor=none;align=left;verticalAlign=middle;spacingTop=-1;spacingLeft=3;spacingRight=3;rotatable=0;labelPosition=right;points=[];portConstraint=eastwest;" parent="dTjT5EwLh-puFRtbz3j6-16" vertex="1">
          <mxGeometry y="52" width="160" height="8" as="geometry" />
        </mxCell>
        <mxCell id="dTjT5EwLh-puFRtbz3j6-19" value="+ street" style="text;strokeColor=none;fillColor=none;align=left;verticalAlign=top;spacingLeft=4;spacingRight=4;overflow=hidden;rotatable=0;points=[[0,0.5],[1,0.5]];portConstraint=eastwest;" parent="dTjT5EwLh-puFRtbz3j6-16" vertex="1">
          <mxGeometry y="60" width="160" height="26" as="geometry" />
        </mxCell>
        <mxCell id="noj-ZBapnDG1__Cq-duX-1" value="+ city" style="text;strokeColor=none;fillColor=none;align=left;verticalAlign=top;spacingLeft=4;spacingRight=4;overflow=hidden;rotatable=0;points=[[0,0.5],[1,0.5]];portConstraint=eastwest;" vertex="1" parent="dTjT5EwLh-puFRtbz3j6-16">
          <mxGeometry y="86" width="160" height="26" as="geometry" />
        </mxCell>
        <mxCell id="noj-ZBapnDG1__Cq-duX-2" value="+ tel.nr" style="text;strokeColor=none;fillColor=none;align=left;verticalAlign=top;spacingLeft=4;spacingRight=4;overflow=hidden;rotatable=0;points=[[0,0.5],[1,0.5]];portConstraint=eastwest;" vertex="1" parent="dTjT5EwLh-puFRtbz3j6-16">
          <mxGeometry y="112" width="160" height="26" as="geometry" />
        </mxCell>
        <mxCell id="dTjT5EwLh-puFRtbz3j6-20" value="Package" style="swimlane;fontStyle=1;align=center;verticalAlign=top;childLayout=stackLayout;horizontal=1;startSize=26;horizontalStack=0;resizeParent=1;resizeParentMax=0;resizeLast=0;collapsible=1;marginBottom=0;" parent="JO5ajSMM-dHssCaJp00G-1" vertex="1">
          <mxGeometry x="630" y="90" width="160" height="164" as="geometry" />
        </mxCell>
        <mxCell id="dTjT5EwLh-puFRtbz3j6-21" value="+ package_id" style="text;strokeColor=none;fillColor=none;align=left;verticalAlign=top;spacingLeft=4;spacingRight=4;overflow=hidden;rotatable=0;points=[[0,0.5],[1,0.5]];portConstraint=eastwest;" parent="dTjT5EwLh-puFRtbz3j6-20" vertex="1">
          <mxGeometry y="26" width="160" height="26" as="geometry" />
        </mxCell>
        <mxCell id="dTjT5EwLh-puFRtbz3j6-22" value="" style="line;strokeWidth=1;fillColor=none;align=left;verticalAlign=middle;spacingTop=-1;spacingLeft=3;spacingRight=3;rotatable=0;labelPosition=right;points=[];portConstraint=eastwest;" parent="dTjT5EwLh-puFRtbz3j6-20" vertex="1">
          <mxGeometry y="52" width="160" height="8" as="geometry" />
        </mxCell>
        <mxCell id="dTjT5EwLh-puFRtbz3j6-23" value="+ delivering schedule" style="text;strokeColor=none;fillColor=none;align=left;verticalAlign=top;spacingLeft=4;spacingRight=4;overflow=hidden;rotatable=0;points=[[0,0.5],[1,0.5]];portConstraint=eastwest;" parent="dTjT5EwLh-puFRtbz3j6-20" vertex="1">
          <mxGeometry y="60" width="160" height="26" as="geometry" />
        </mxCell>
        <mxCell id="1p9i1ewbr0590ArV8Eti-0" value="+ customer_id" style="text;strokeColor=none;fillColor=none;align=left;verticalAlign=top;spacingLeft=4;spacingRight=4;overflow=hidden;rotatable=0;points=[[0,0.5],[1,0.5]];portConstraint=eastwest;" vertex="1" parent="dTjT5EwLh-puFRtbz3j6-20">
          <mxGeometry y="86" width="160" height="26" as="geometry" />
        </mxCell>
        <mxCell id="1p9i1ewbr0590ArV8Eti-1" value="+ method(type): type" style="text;strokeColor=none;fillColor=none;align=left;verticalAlign=top;spacingLeft=4;spacingRight=4;overflow=hidden;rotatable=0;points=[[0,0.5],[1,0.5]];portConstraint=eastwest;" vertex="1" parent="dTjT5EwLh-puFRtbz3j6-20">
          <mxGeometry y="112" width="160" height="26" as="geometry" />
        </mxCell>
        <mxCell id="Yk7roJaId9ygR1UFBBuD-0" value="+ fk_mail station_id" style="text;strokeColor=none;fillColor=none;align=left;verticalAlign=top;spacingLeft=4;spacingRight=4;overflow=hidden;rotatable=0;points=[[0,0.5],[1,0.5]];portConstraint=eastwest;" vertex="1" parent="dTjT5EwLh-puFRtbz3j6-20">
          <mxGeometry y="138" width="160" height="26" as="geometry" />
        </mxCell>
        <mxCell id="G6izfFBVWHGUECnGd3fe-0" value="&lt;b&gt;Class Diagram&lt;/b&gt;" style="text;html=1;align=center;verticalAlign=middle;resizable=0;points=[];autosize=1;" vertex="1" parent="JO5ajSMM-dHssCaJp00G-1">
          <mxGeometry x="360" y="30" width="100" height="20" as="geometry" />
        </mxCell>
      </root>
    </mxGraphModel>
  </diagram>
  <diagram id="9BDImDQejYHgkIHmsRg5" name="Page-3">
    <mxGraphModel dx="1038" dy="548" grid="1" gridSize="10" guides="1" tooltips="1" connect="1" arrows="1" fold="1" page="1" pageScale="1" pageWidth="827" pageHeight="1169" math="0" shadow="0">
      <root>
        <mxCell id="fS5O7LezyGkhe76QsvaD-0" />
        <mxCell id="fS5O7LezyGkhe76QsvaD-1" parent="fS5O7LezyGkhe76QsvaD-0" />
        <mxCell id="F3nd0EKoZzZpbIEqMixR-0" value="Delivering Route" style="swimlane;fontStyle=1;align=center;verticalAlign=top;childLayout=stackLayout;horizontal=1;startSize=26;horizontalStack=0;resizeParent=1;resizeParentMax=0;resizeLast=0;collapsible=1;marginBottom=0;" vertex="1" parent="fS5O7LezyGkhe76QsvaD-1">
          <mxGeometry x="560" y="180" width="160" height="168" as="geometry" />
        </mxCell>
        <mxCell id="F3nd0EKoZzZpbIEqMixR-1" value="+ delivering route_id" style="text;strokeColor=none;fillColor=none;align=left;verticalAlign=top;spacingLeft=4;spacingRight=4;overflow=hidden;rotatable=0;points=[[0,0.5],[1,0.5]];portConstraint=eastwest;" vertex="1" parent="F3nd0EKoZzZpbIEqMixR-0">
          <mxGeometry y="26" width="160" height="26" as="geometry" />
        </mxCell>
        <mxCell id="F3nd0EKoZzZpbIEqMixR-2" value="" style="line;strokeWidth=1;fillColor=none;align=left;verticalAlign=middle;spacingTop=-1;spacingLeft=3;spacingRight=3;rotatable=0;labelPosition=right;points=[];portConstraint=eastwest;" vertex="1" parent="F3nd0EKoZzZpbIEqMixR-0">
          <mxGeometry y="52" width="160" height="8" as="geometry" />
        </mxCell>
        <mxCell id="F3nd0EKoZzZpbIEqMixR-3" value="+ fk_package_id" style="text;strokeColor=none;fillColor=none;align=left;verticalAlign=top;spacingLeft=4;spacingRight=4;overflow=hidden;rotatable=0;points=[[0,0.5],[1,0.5]];portConstraint=eastwest;" vertex="1" parent="F3nd0EKoZzZpbIEqMixR-0">
          <mxGeometry y="60" width="160" height="30" as="geometry" />
        </mxCell>
        <mxCell id="F3nd0EKoZzZpbIEqMixR-4" value="+ route name" style="text;strokeColor=none;fillColor=none;align=left;verticalAlign=top;spacingLeft=4;spacingRight=4;overflow=hidden;rotatable=0;points=[[0,0.5],[1,0.5]];portConstraint=eastwest;" vertex="1" parent="F3nd0EKoZzZpbIEqMixR-0">
          <mxGeometry y="90" width="160" height="26" as="geometry" />
        </mxCell>
        <mxCell id="F3nd0EKoZzZpbIEqMixR-5" value="+ capacity" style="text;strokeColor=none;fillColor=none;align=left;verticalAlign=top;spacingLeft=4;spacingRight=4;overflow=hidden;rotatable=0;points=[[0,0.5],[1,0.5]];portConstraint=eastwest;" vertex="1" parent="F3nd0EKoZzZpbIEqMixR-0">
          <mxGeometry y="116" width="160" height="26" as="geometry" />
        </mxCell>
        <mxCell id="F3nd0EKoZzZpbIEqMixR-6" value="+fk_customer_id" style="text;strokeColor=none;fillColor=none;align=left;verticalAlign=top;spacingLeft=4;spacingRight=4;overflow=hidden;rotatable=0;points=[[0,0.5],[1,0.5]];portConstraint=eastwest;" vertex="1" parent="F3nd0EKoZzZpbIEqMixR-0">
          <mxGeometry y="142" width="160" height="26" as="geometry" />
        </mxCell>
        <mxCell id="F3nd0EKoZzZpbIEqMixR-41" style="edgeStyle=orthogonalEdgeStyle;rounded=0;orthogonalLoop=1;jettySize=auto;html=1;entryX=1;entryY=0.846;entryDx=0;entryDy=0;entryPerimeter=0;startArrow=none;startFill=0;endArrow=none;endFill=0;" edge="1" parent="fS5O7LezyGkhe76QsvaD-1" source="F3nd0EKoZzZpbIEqMixR-7" target="F3nd0EKoZzZpbIEqMixR-30">
          <mxGeometry relative="1" as="geometry" />
        </mxCell>
        <mxCell id="F3nd0EKoZzZpbIEqMixR-47" style="edgeStyle=orthogonalEdgeStyle;rounded=0;orthogonalLoop=1;jettySize=auto;html=1;entryX=1.003;entryY=-0.115;entryDx=0;entryDy=0;entryPerimeter=0;startFill=0;endArrow=none;endFill=0;" edge="1" parent="fS5O7LezyGkhe76QsvaD-1" source="F3nd0EKoZzZpbIEqMixR-7" target="F3nd0EKoZzZpbIEqMixR-18">
          <mxGeometry relative="1" as="geometry" />
        </mxCell>
        <mxCell id="F3nd0EKoZzZpbIEqMixR-7" value="Emplyees" style="swimlane;fontStyle=1;align=center;verticalAlign=top;childLayout=stackLayout;horizontal=1;startSize=26;horizontalStack=0;resizeParent=1;resizeParentMax=0;resizeLast=0;collapsible=1;marginBottom=0;" vertex="1" parent="fS5O7LezyGkhe76QsvaD-1">
          <mxGeometry x="1020" y="550" width="160" height="164" as="geometry" />
        </mxCell>
        <mxCell id="F3nd0EKoZzZpbIEqMixR-8" value="+ employee_id" style="text;strokeColor=none;fillColor=none;align=left;verticalAlign=top;spacingLeft=4;spacingRight=4;overflow=hidden;rotatable=0;points=[[0,0.5],[1,0.5]];portConstraint=eastwest;" vertex="1" parent="F3nd0EKoZzZpbIEqMixR-7">
          <mxGeometry y="26" width="160" height="26" as="geometry" />
        </mxCell>
        <mxCell id="F3nd0EKoZzZpbIEqMixR-9" value="" style="line;strokeWidth=1;fillColor=none;align=left;verticalAlign=middle;spacingTop=-1;spacingLeft=3;spacingRight=3;rotatable=0;labelPosition=right;points=[];portConstraint=eastwest;" vertex="1" parent="F3nd0EKoZzZpbIEqMixR-7">
          <mxGeometry y="52" width="160" height="8" as="geometry" />
        </mxCell>
        <mxCell id="F3nd0EKoZzZpbIEqMixR-10" value="+ first name" style="text;strokeColor=none;fillColor=none;align=left;verticalAlign=top;spacingLeft=4;spacingRight=4;overflow=hidden;rotatable=0;points=[[0,0.5],[1,0.5]];portConstraint=eastwest;" vertex="1" parent="F3nd0EKoZzZpbIEqMixR-7">
          <mxGeometry y="60" width="160" height="26" as="geometry" />
        </mxCell>
        <mxCell id="F3nd0EKoZzZpbIEqMixR-11" value="+ last name" style="text;strokeColor=none;fillColor=none;align=left;verticalAlign=top;spacingLeft=4;spacingRight=4;overflow=hidden;rotatable=0;points=[[0,0.5],[1,0.5]];portConstraint=eastwest;" vertex="1" parent="F3nd0EKoZzZpbIEqMixR-7">
          <mxGeometry y="86" width="160" height="26" as="geometry" />
        </mxCell>
        <mxCell id="F3nd0EKoZzZpbIEqMixR-12" value="+ fk_address" style="text;strokeColor=none;fillColor=none;align=left;verticalAlign=top;spacingLeft=4;spacingRight=4;overflow=hidden;rotatable=0;points=[[0,0.5],[1,0.5]];portConstraint=eastwest;" vertex="1" parent="F3nd0EKoZzZpbIEqMixR-7">
          <mxGeometry y="112" width="160" height="26" as="geometry" />
        </mxCell>
        <mxCell id="F3nd0EKoZzZpbIEqMixR-13" value="+ department" style="text;strokeColor=none;fillColor=none;align=left;verticalAlign=top;spacingLeft=4;spacingRight=4;overflow=hidden;rotatable=0;points=[[0,0.5],[1,0.5]];portConstraint=eastwest;" vertex="1" parent="F3nd0EKoZzZpbIEqMixR-7">
          <mxGeometry y="138" width="160" height="26" as="geometry" />
        </mxCell>
        <mxCell id="F3nd0EKoZzZpbIEqMixR-46" style="edgeStyle=orthogonalEdgeStyle;rounded=0;orthogonalLoop=1;jettySize=auto;html=1;startFill=0;endArrow=none;endFill=0;" edge="1" parent="fS5O7LezyGkhe76QsvaD-1" source="F3nd0EKoZzZpbIEqMixR-14" target="F3nd0EKoZzZpbIEqMixR-39">
          <mxGeometry relative="1" as="geometry" />
        </mxCell>
        <mxCell id="F3nd0EKoZzZpbIEqMixR-14" value="Mail Station" style="swimlane;fontStyle=1;align=center;verticalAlign=top;childLayout=stackLayout;horizontal=1;startSize=26;horizontalStack=0;resizeParent=1;resizeParentMax=0;resizeLast=0;collapsible=1;marginBottom=0;" vertex="1" parent="fS5O7LezyGkhe76QsvaD-1">
          <mxGeometry x="800" y="348" width="160" height="138" as="geometry" />
        </mxCell>
        <mxCell id="F3nd0EKoZzZpbIEqMixR-15" value="+ mail station_id" style="text;strokeColor=none;fillColor=none;align=left;verticalAlign=top;spacingLeft=4;spacingRight=4;overflow=hidden;rotatable=0;points=[[0,0.5],[1,0.5]];portConstraint=eastwest;" vertex="1" parent="F3nd0EKoZzZpbIEqMixR-14">
          <mxGeometry y="26" width="160" height="26" as="geometry" />
        </mxCell>
        <mxCell id="F3nd0EKoZzZpbIEqMixR-16" value="" style="line;strokeWidth=1;fillColor=none;align=left;verticalAlign=middle;spacingTop=-1;spacingLeft=3;spacingRight=3;rotatable=0;labelPosition=right;points=[];portConstraint=eastwest;" vertex="1" parent="F3nd0EKoZzZpbIEqMixR-14">
          <mxGeometry y="52" width="160" height="8" as="geometry" />
        </mxCell>
        <mxCell id="F3nd0EKoZzZpbIEqMixR-17" value="+ fk_address" style="text;strokeColor=none;fillColor=none;align=left;verticalAlign=top;spacingLeft=4;spacingRight=4;overflow=hidden;rotatable=0;points=[[0,0.5],[1,0.5]];portConstraint=eastwest;" vertex="1" parent="F3nd0EKoZzZpbIEqMixR-14">
          <mxGeometry y="60" width="160" height="26" as="geometry" />
        </mxCell>
        <mxCell id="F3nd0EKoZzZpbIEqMixR-18" value="+ fk_customer_id" style="text;align=left;verticalAlign=top;spacingLeft=4;spacingRight=4;overflow=hidden;rotatable=0;points=[[0,0.5],[1,0.5]];portConstraint=eastwest;" vertex="1" parent="F3nd0EKoZzZpbIEqMixR-14">
          <mxGeometry y="86" width="160" height="26" as="geometry" />
        </mxCell>
        <mxCell id="F3nd0EKoZzZpbIEqMixR-19" value="+ fk_package__id" style="text;align=left;verticalAlign=top;spacingLeft=4;spacingRight=4;overflow=hidden;rotatable=0;points=[[0,0.5],[1,0.5]];portConstraint=eastwest;" vertex="1" parent="F3nd0EKoZzZpbIEqMixR-14">
          <mxGeometry y="112" width="160" height="26" as="geometry" />
        </mxCell>
        <mxCell id="F3nd0EKoZzZpbIEqMixR-43" style="edgeStyle=orthogonalEdgeStyle;rounded=0;orthogonalLoop=1;jettySize=auto;html=1;entryX=0;entryY=0.5;entryDx=0;entryDy=0;startFill=0;endArrow=none;endFill=0;" edge="1" parent="fS5O7LezyGkhe76QsvaD-1" source="F3nd0EKoZzZpbIEqMixR-20" target="F3nd0EKoZzZpbIEqMixR-6">
          <mxGeometry relative="1" as="geometry" />
        </mxCell>
        <mxCell id="F3nd0EKoZzZpbIEqMixR-20" value="Customer" style="swimlane;fontStyle=1;align=center;verticalAlign=top;childLayout=stackLayout;horizontal=1;startSize=26;horizontalStack=0;resizeParent=1;resizeParentMax=0;resizeLast=0;collapsible=1;marginBottom=0;" vertex="1" parent="fS5O7LezyGkhe76QsvaD-1">
          <mxGeometry x="390" y="420" width="160" height="180" as="geometry" />
        </mxCell>
        <mxCell id="F3nd0EKoZzZpbIEqMixR-21" value="+customer_id" style="text;strokeColor=none;fillColor=none;align=left;verticalAlign=top;spacingLeft=4;spacingRight=4;overflow=hidden;rotatable=0;points=[[0,0.5],[1,0.5]];portConstraint=eastwest;" vertex="1" parent="F3nd0EKoZzZpbIEqMixR-20">
          <mxGeometry y="26" width="160" height="26" as="geometry" />
        </mxCell>
        <mxCell id="F3nd0EKoZzZpbIEqMixR-22" value="" style="line;strokeWidth=1;fillColor=none;align=left;verticalAlign=middle;spacingTop=-1;spacingLeft=3;spacingRight=3;rotatable=0;labelPosition=right;points=[];portConstraint=eastwest;" vertex="1" parent="F3nd0EKoZzZpbIEqMixR-20">
          <mxGeometry y="52" width="160" height="8" as="geometry" />
        </mxCell>
        <mxCell id="F3nd0EKoZzZpbIEqMixR-23" value="+ first name" style="text;strokeColor=none;fillColor=none;align=left;verticalAlign=top;spacingLeft=4;spacingRight=4;overflow=hidden;rotatable=0;points=[[0,0.5],[1,0.5]];portConstraint=eastwest;" vertex="1" parent="F3nd0EKoZzZpbIEqMixR-20">
          <mxGeometry y="60" width="160" height="30" as="geometry" />
        </mxCell>
        <mxCell id="F3nd0EKoZzZpbIEqMixR-24" value="+ last name" style="text;strokeColor=none;fillColor=none;align=left;verticalAlign=top;spacingLeft=4;spacingRight=4;overflow=hidden;rotatable=0;points=[[0,0.5],[1,0.5]];portConstraint=eastwest;" vertex="1" parent="F3nd0EKoZzZpbIEqMixR-20">
          <mxGeometry y="90" width="160" height="30" as="geometry" />
        </mxCell>
        <mxCell id="F3nd0EKoZzZpbIEqMixR-25" value="+ fk_address" style="text;strokeColor=none;fillColor=none;align=left;verticalAlign=top;spacingLeft=4;spacingRight=4;overflow=hidden;rotatable=0;points=[[0,0.5],[1,0.5]];portConstraint=eastwest;" vertex="1" parent="F3nd0EKoZzZpbIEqMixR-20">
          <mxGeometry y="120" width="160" height="30" as="geometry" />
        </mxCell>
        <mxCell id="F3nd0EKoZzZpbIEqMixR-26" value="+ order nr" style="text;strokeColor=none;fillColor=none;align=left;verticalAlign=top;spacingLeft=4;spacingRight=4;overflow=hidden;rotatable=0;points=[[0,0.5],[1,0.5]];portConstraint=eastwest;" vertex="1" parent="F3nd0EKoZzZpbIEqMixR-20">
          <mxGeometry y="150" width="160" height="30" as="geometry" />
        </mxCell>
        <mxCell id="F3nd0EKoZzZpbIEqMixR-48" style="edgeStyle=orthogonalEdgeStyle;rounded=0;orthogonalLoop=1;jettySize=auto;html=1;entryX=0;entryY=0.5;entryDx=0;entryDy=0;startFill=0;endArrow=none;endFill=0;" edge="1" parent="fS5O7LezyGkhe76QsvaD-1" source="F3nd0EKoZzZpbIEqMixR-27" target="F3nd0EKoZzZpbIEqMixR-19">
          <mxGeometry relative="1" as="geometry" />
        </mxCell>
        <mxCell id="F3nd0EKoZzZpbIEqMixR-27" value="Address" style="swimlane;fontStyle=1;align=center;verticalAlign=top;childLayout=stackLayout;horizontal=1;startSize=26;horizontalStack=0;resizeParent=1;resizeParentMax=0;resizeLast=0;collapsible=1;marginBottom=0;" vertex="1" parent="fS5O7LezyGkhe76QsvaD-1">
          <mxGeometry x="690" y="550" width="160" height="138" as="geometry" />
        </mxCell>
        <mxCell id="F3nd0EKoZzZpbIEqMixR-28" value="+ address_id" style="text;strokeColor=none;fillColor=none;align=left;verticalAlign=top;spacingLeft=4;spacingRight=4;overflow=hidden;rotatable=0;points=[[0,0.5],[1,0.5]];portConstraint=eastwest;" vertex="1" parent="F3nd0EKoZzZpbIEqMixR-27">
          <mxGeometry y="26" width="160" height="26" as="geometry" />
        </mxCell>
        <mxCell id="F3nd0EKoZzZpbIEqMixR-29" value="" style="line;strokeWidth=1;fillColor=none;align=left;verticalAlign=middle;spacingTop=-1;spacingLeft=3;spacingRight=3;rotatable=0;labelPosition=right;points=[];portConstraint=eastwest;" vertex="1" parent="F3nd0EKoZzZpbIEqMixR-27">
          <mxGeometry y="52" width="160" height="8" as="geometry" />
        </mxCell>
        <mxCell id="F3nd0EKoZzZpbIEqMixR-30" value="+ street" style="text;strokeColor=none;fillColor=none;align=left;verticalAlign=top;spacingLeft=4;spacingRight=4;overflow=hidden;rotatable=0;points=[[0,0.5],[1,0.5]];portConstraint=eastwest;" vertex="1" parent="F3nd0EKoZzZpbIEqMixR-27">
          <mxGeometry y="60" width="160" height="26" as="geometry" />
        </mxCell>
        <mxCell id="F3nd0EKoZzZpbIEqMixR-31" value="+ city" style="text;strokeColor=none;fillColor=none;align=left;verticalAlign=top;spacingLeft=4;spacingRight=4;overflow=hidden;rotatable=0;points=[[0,0.5],[1,0.5]];portConstraint=eastwest;" vertex="1" parent="F3nd0EKoZzZpbIEqMixR-27">
          <mxGeometry y="86" width="160" height="26" as="geometry" />
        </mxCell>
        <mxCell id="F3nd0EKoZzZpbIEqMixR-32" value="+ tel.nr" style="text;strokeColor=none;fillColor=none;align=left;verticalAlign=top;spacingLeft=4;spacingRight=4;overflow=hidden;rotatable=0;points=[[0,0.5],[1,0.5]];portConstraint=eastwest;" vertex="1" parent="F3nd0EKoZzZpbIEqMixR-27">
          <mxGeometry y="112" width="160" height="26" as="geometry" />
        </mxCell>
        <mxCell id="F3nd0EKoZzZpbIEqMixR-33" value="Package" style="swimlane;fontStyle=1;align=center;verticalAlign=top;childLayout=stackLayout;horizontal=1;startSize=26;horizontalStack=0;resizeParent=1;resizeParentMax=0;resizeLast=0;collapsible=1;marginBottom=0;" vertex="1" parent="fS5O7LezyGkhe76QsvaD-1">
          <mxGeometry x="1020" y="160" width="160" height="164" as="geometry" />
        </mxCell>
        <mxCell id="F3nd0EKoZzZpbIEqMixR-34" value="+ package_id" style="text;strokeColor=none;fillColor=none;align=left;verticalAlign=top;spacingLeft=4;spacingRight=4;overflow=hidden;rotatable=0;points=[[0,0.5],[1,0.5]];portConstraint=eastwest;" vertex="1" parent="F3nd0EKoZzZpbIEqMixR-33">
          <mxGeometry y="26" width="160" height="26" as="geometry" />
        </mxCell>
        <mxCell id="F3nd0EKoZzZpbIEqMixR-35" value="" style="line;strokeWidth=1;fillColor=none;align=left;verticalAlign=middle;spacingTop=-1;spacingLeft=3;spacingRight=3;rotatable=0;labelPosition=right;points=[];portConstraint=eastwest;" vertex="1" parent="F3nd0EKoZzZpbIEqMixR-33">
          <mxGeometry y="52" width="160" height="8" as="geometry" />
        </mxCell>
        <mxCell id="F3nd0EKoZzZpbIEqMixR-36" value="+ delivering schedule" style="text;strokeColor=none;fillColor=none;align=left;verticalAlign=top;spacingLeft=4;spacingRight=4;overflow=hidden;rotatable=0;points=[[0,0.5],[1,0.5]];portConstraint=eastwest;" vertex="1" parent="F3nd0EKoZzZpbIEqMixR-33">
          <mxGeometry y="60" width="160" height="26" as="geometry" />
        </mxCell>
        <mxCell id="F3nd0EKoZzZpbIEqMixR-37" value="+ customer_id" style="text;strokeColor=none;fillColor=none;align=left;verticalAlign=top;spacingLeft=4;spacingRight=4;overflow=hidden;rotatable=0;points=[[0,0.5],[1,0.5]];portConstraint=eastwest;" vertex="1" parent="F3nd0EKoZzZpbIEqMixR-33">
          <mxGeometry y="86" width="160" height="26" as="geometry" />
        </mxCell>
        <mxCell id="F3nd0EKoZzZpbIEqMixR-38" value="+ method(type): type" style="text;strokeColor=none;fillColor=none;align=left;verticalAlign=top;spacingLeft=4;spacingRight=4;overflow=hidden;rotatable=0;points=[[0,0.5],[1,0.5]];portConstraint=eastwest;" vertex="1" parent="F3nd0EKoZzZpbIEqMixR-33">
          <mxGeometry y="112" width="160" height="26" as="geometry" />
        </mxCell>
        <mxCell id="F3nd0EKoZzZpbIEqMixR-39" value="+ fk_mail station_id" style="text;strokeColor=none;fillColor=none;align=left;verticalAlign=top;spacingLeft=4;spacingRight=4;overflow=hidden;rotatable=0;points=[[0,0.5],[1,0.5]];portConstraint=eastwest;" vertex="1" parent="F3nd0EKoZzZpbIEqMixR-33">
          <mxGeometry y="138" width="160" height="26" as="geometry" />
        </mxCell>
        <mxCell id="F3nd0EKoZzZpbIEqMixR-40" value="&lt;b&gt;Normalization of the design&lt;/b&gt;" style="text;html=1;align=center;verticalAlign=middle;resizable=0;points=[];autosize=1;" vertex="1" parent="fS5O7LezyGkhe76QsvaD-1">
          <mxGeometry x="735" y="100" width="170" height="20" as="geometry" />
        </mxCell>
        <mxCell id="F3nd0EKoZzZpbIEqMixR-42" style="edgeStyle=orthogonalEdgeStyle;rounded=0;orthogonalLoop=1;jettySize=auto;html=1;entryX=1;entryY=0.5;entryDx=0;entryDy=0;startFill=0;endArrow=none;endFill=0;" edge="1" parent="fS5O7LezyGkhe76QsvaD-1" source="F3nd0EKoZzZpbIEqMixR-30" target="F3nd0EKoZzZpbIEqMixR-25">
          <mxGeometry relative="1" as="geometry" />
        </mxCell>
        <mxCell id="F3nd0EKoZzZpbIEqMixR-45" style="edgeStyle=orthogonalEdgeStyle;rounded=0;orthogonalLoop=1;jettySize=auto;html=1;entryX=-0.017;entryY=0.054;entryDx=0;entryDy=0;entryPerimeter=0;startFill=0;endArrow=none;endFill=0;" edge="1" parent="fS5O7LezyGkhe76QsvaD-1" source="F3nd0EKoZzZpbIEqMixR-1" target="F3nd0EKoZzZpbIEqMixR-36">
          <mxGeometry relative="1" as="geometry" />
        </mxCell>
        <mxCell id="F3nd0EKoZzZpbIEqMixR-49" style="edgeStyle=orthogonalEdgeStyle;rounded=0;orthogonalLoop=1;jettySize=auto;html=1;entryX=0;entryY=0.5;entryDx=0;entryDy=0;startFill=0;endArrow=none;endFill=0;" edge="1" parent="fS5O7LezyGkhe76QsvaD-1" source="F3nd0EKoZzZpbIEqMixR-21" target="F3nd0EKoZzZpbIEqMixR-17">
          <mxGeometry relative="1" as="geometry" />
        </mxCell>
      </root>
    </mxGraphModel>
  </diagram>
</mxfile>
